<?xml version="1.0" standalone="no"?>
<!DOCTYPE svg PUBLIC "-//W3C//DTD SVG 20010904//EN"
 "http://www.w3.org/TR/2001/REC-SVG-20010904/DTD/svg10.dtd">
<svg version="1.0" xmlns="http://www.w3.org/2000/svg"
 width="154.000000pt" height="154.000000pt" viewBox="0 0 154.000000 154.000000"
 preserveAspectRatio="xMidYMid meet">
<metadata>
Created by potrace 1.11, written by Peter Selinger 2001-2013
</metadata>
<g transform="translate(0.000000,154.000000) scale(0.100000,-0.100000)"
fill="#000000" stroke="none">
<path d="M70 1487 c0 -38 6 -48 45 -87 24 -24 43 -45 41 -47 -1 -2 -22 3 -44
11 l-42 15 0 -584 c0 -322 2 -585 4 -585 2 0 59 68 126 152 l123 152 3 80 c7
221 16 584 15 609 -1 15 4 27 11 28 57 5 91 7 218 13 353 17 460 25 474 34 25
15 342 235 351 243 5 5 -276 9 -658 9 l-667 0 0 -43z"/>
<path d="M1297 1247 l-128 -122 -4 -145 c-2 -80 -7 -253 -11 -385 -6 -233 -8
-260 -22 -251 -4 2 -70 7 -147 10 -77 4 -169 9 -205 11 -36 3 -116 7 -178 10
l-113 5 -152 -121 c-84 -67 -159 -128 -167 -135 -12 -12 86 -14 623 -14 l637
0 0 88 c-1 75 -4 93 -25 127 -30 49 -31 59 -4 45 11 -7 23 -10 25 -7 2 2 3
230 2 505 l-3 502 -128 -123z"/>
<path d="M756 890 c75 -99 138 -180 139 -180 1 0 2 6 2 13 0 35 15 236 19 259
5 30 7 29 -111 52 -44 9 -91 18 -105 21 -88 18 -92 29 56 -165z"/>
<path d="M592 827 c2 -76 7 -141 12 -144 14 -9 299 -63 304 -58 3 3 -38 49
-91 102 -53 54 -126 130 -162 168 l-65 70 2 -138z"/>
</g>
</svg>
